<svg id="Layer_1" data-name="Layer 1" xmlns="http://www.w3.org/2000/svg" viewBox="0 0 368.27 291.17"><defs><style>.cls-1{fill:#87c540;fill-rule:evenodd;}</style></defs><path class="cls-1" d="M218.41,250.42a105.78,105.78,0,0,1,45.28,9.94,117.67,117.67,0,0,1,37.12,27.12,128.83,128.83,0,0,1,25,40.31,136.58,136.58,0,0,1,0,98.35,128.76,128.76,0,0,1-25,40.32,117.67,117.67,0,0,1-37.12,27.12,105.78,105.78,0,0,1-45.28,9.94H177.13l16.31-43.39h25a70.26,70.26,0,0,0,29.3-6.33,79.32,79.32,0,0,0,25-17.9,88.84,88.84,0,0,0,0-117.87,79.48,79.48,0,0,0-25-17.9,70.26,70.26,0,0,0-29.3-6.33H161.82V503.52H121.87V250.42Z" transform="translate(-121.87 -250.42)"/><polygon class="cls-1" points="263.07 38.06 368.27 291.17 324.32 291.17 306.35 247.78 306.35 247.78 288.37 204.39 288.37 204.39 241.1 90.85 193.82 204.39 254.41 204.39 272.39 247.78 175.85 247.78 157.87 291.17 113.92 291.17 219.13 38.06 263.07 38.06"/></svg>